<?xml version="1.0" encoding="UTF-8" standalone="no"?>
<!-- Created with Inkscape (http://www.inkscape.org/) -->

<svg
   xmlns:dc="http://purl.org/dc/elements/1.1/"
   xmlns:cc="http://creativecommons.org/ns#"
   xmlns:rdf="http://www.w3.org/1999/02/22-rdf-syntax-ns#"
   xmlns:svg="http://www.w3.org/2000/svg"
   xmlns="http://www.w3.org/2000/svg"
   xmlns:xlink="http://www.w3.org/1999/xlink"
   xmlns:sodipodi="http://sodipodi.sourceforge.net/DTD/sodipodi-0.dtd"
   xmlns:inkscape="http://www.inkscape.org/namespaces/inkscape"
   width="400"
   height="100"
   id="svg2"
   version="1.1"
   inkscape:version="0.48.4 r9939"
   sodipodi:docname="channel_bar.svg"
   inkscape:export-filename="C:\Users\Socrates\Documents\GitHub\broadsword\public\images\channel_bar.png"
   inkscape:export-xdpi="90"
   inkscape:export-ydpi="90">
  <defs
     id="defs4">
    <linearGradient
       id="linearGradient3911">
      <stop
         style="stop-color:#4a006b;stop-opacity:1;"
         offset="0"
         id="stop3913" />
      <stop
         style="stop-color:#909090;stop-opacity:1;"
         offset="1"
         id="stop3915" />
    </linearGradient>
    <linearGradient
       id="linearGradient3867">
      <stop
         style="stop-color:#37302a;stop-opacity:1;"
         offset="0"
         id="stop3869" />
      <stop
         style="stop-color:#252321;stop-opacity:1;"
         offset="1"
         id="stop3871" />
    </linearGradient>
    <linearGradient
       id="linearGradient3838">
      <stop
         style="stop-color:#ffc035;stop-opacity:1;"
         offset="0"
         id="stop3840" />
      <stop
         id="stop3863"
         offset="0.2"
         style="stop-color:#ffcc35;stop-opacity:1;" />
      <stop
         id="stop3861"
         offset="0.40000001"
         style="stop-color:#ffdb85;stop-opacity:1;" />
      <stop
         id="stop3859"
         offset="0.60000002"
         style="stop-color:#ffd350;stop-opacity:1;" />
      <stop
         id="stop3857"
         offset="0.80000001"
         style="stop-color:#ebb000;stop-opacity:1;" />
      <stop
         style="stop-color:#ffce62;stop-opacity:1;"
         offset="1"
         id="stop3842" />
    </linearGradient>
    <linearGradient
       id="linearGradient3828">
      <stop
         style="stop-color:#705113;stop-opacity:1;"
         offset="0"
         id="stop3830" />
      <stop
         style="stop-color:#b36501;stop-opacity:1;"
         offset="1"
         id="stop3832" />
    </linearGradient>
    <linearGradient
       id="linearGradient3803">
      <stop
         style="stop-color:#ffb200;stop-opacity:1;"
         offset="0"
         id="stop3805" />
      <stop
         id="stop3811"
         offset="0.81944442"
         style="stop-color:#ff8d00;stop-opacity:1;" />
      <stop
         style="stop-color:#ff8d00;stop-opacity:1;"
         offset="0.90972221"
         id="stop3826" />
      <stop
         style="stop-color:#ff7d00;stop-opacity:1;"
         offset="1"
         id="stop3807" />
    </linearGradient>
    <linearGradient
       id="linearGradient3795">
      <stop
         style="stop-color:#ffb000;stop-opacity:1;"
         offset="0"
         id="stop3797" />
      <stop
         style="stop-color:#ffc736;stop-opacity:1;"
         offset="1"
         id="stop3799" />
    </linearGradient>
    <linearGradient
       inkscape:collect="always"
       xlink:href="#linearGradient3838"
       id="linearGradient3844"
       x1="-181.82745"
       y1="157.57869"
       x2="-51.012695"
       y2="157.57869"
       gradientUnits="userSpaceOnUse" />
    <linearGradient
       inkscape:collect="always"
       xlink:href="#linearGradient3867"
       id="linearGradient3873"
       x1="222.79227"
       y1="1042.2356"
       x2="222.50557"
       y2="980.80695"
       gradientUnits="userSpaceOnUse" />
    <linearGradient
       inkscape:collect="always"
       xlink:href="#linearGradient3867"
       id="linearGradient3883"
       x1="110.23289"
       y1="1013.9802"
       x2="97.605988"
       y2="1004.005"
       gradientUnits="userSpaceOnUse" />
    <filter
       inkscape:collect="always"
       id="filter3903">
      <feGaussianBlur
         inkscape:collect="always"
         stdDeviation="1.8379083"
         id="feGaussianBlur3905" />
    </filter>
    <filter
       inkscape:collect="always"
       id="filter5416">
      <feGaussianBlur
         inkscape:collect="always"
         stdDeviation="1.0071876"
         id="feGaussianBlur5418" />
    </filter>
  </defs>
  <sodipodi:namedview
     id="base"
     pagecolor="#ffffff"
     bordercolor="#666666"
     borderopacity="1.0"
     inkscape:pageopacity="0.0"
     inkscape:pageshadow="2"
     inkscape:zoom="7.9195959"
     inkscape:cx="44.316793"
     inkscape:cy="49.286338"
     inkscape:document-units="px"
     inkscape:current-layer="layer1"
     showgrid="false"
     inkscape:window-width="1920"
     inkscape:window-height="1018"
     inkscape:window-x="1672"
     inkscape:window-y="-8"
     inkscape:window-maximized="1" />
  <metadata
     id="metadata7">
    <rdf:RDF>
      <cc:Work
         rdf:about="">
        <dc:format>image/svg+xml</dc:format>
        <dc:type
           rdf:resource="http://purl.org/dc/dcmitype/StillImage" />
        <dc:title></dc:title>
      </cc:Work>
    </rdf:RDF>
  </metadata>
  <g
     inkscape:label="Layer 1"
     inkscape:groupmode="layer"
     id="layer1"
     transform="translate(0,-952.36218)">
    <rect
       style="fill:#ffffff;fill-opacity:1;stroke:none"
       id="rect3907-7"
       width="100.63644"
       height="100.82584"
       x="-0.12626907"
       y="952.29395"
       inkscape:export-filename="C:\Users\Socrates\Documents\GitHub\broadsword\public\images\rect3907.png"
       inkscape:export-xdpi="90"
       inkscape:export-ydpi="90" />
    <path
       inkscape:connector-curvature="0"
       style="fill:#000000;fill-opacity:1;stroke:none;filter:url(#filter5416)"
       d="m -0.125,952.29968 0,100.81252 24.375,0 c -0.250147,-11.6366 -23.6875,-19.7163 -23.6875,-50.2813 0,-30.72907 23.6875,-39.78444 23.6875,-50.46872 l 38.0625,-0.0625 -62.4375,0 z m 100.5,0 0,100.81252 0.125,0 0,-100.81252 -0.125,0 z"
       id="rect3907-1" />
    <path
       style="fill:#847661;fill-opacity:1;stroke:none"
       d="M -0.125 -0.0625 L -0.125 100.75 L 24.25 100.75 C 23.999853 89.113441 0.5625 81.033766 0.5625 50.46875 C 0.5625 19.73965 24.25 10.68428 24.25 0 L 62.3125 -0.0625 L -0.125 -0.0625 z M 100.375 -0.0625 L 100.375 100.75 L 100.5 100.75 L 100.5 -0.0625 L 100.375 -0.0625 z "
       id="rect3907"
       transform="translate(0,952.36218)" />
    <rect
       style="fill:url(#linearGradient3873);fill-opacity:1;stroke:#d7d7d7;stroke-opacity:1"
       id="rect3791"
       width="340.07043"
       height="64.667709"
       x="50.649403"
       y="978.11597"
       ry="0" />
    <rect
       style="fill:#cabcac;fill-opacity:1;stroke:none"
       id="rect3789"
       width="350.31583"
       height="25.696339"
       x="46.738667"
       y="955.4502"
       ry="0" />
    <path
       sodipodi:type="arc"
       style="fill:#585858;fill-opacity:1;stroke:none"
       id="path3793"
       sodipodi:cx="48.92857"
       sodipodi:cy="50.714287"
       sodipodi:rx="26.428572"
       sodipodi:ry="26.428572"
       d="m 75.357141,50.714287 a 26.428572,26.428572 0 1 1 -52.857143,0 26.428572,26.428572 0 1 1 52.857143,0 z"
       transform="translate(0.35714286,950.57647)" />
    <path
       inkscape:connector-curvature="0"
       style="fill:#000000;fill-opacity:1;stroke:none;filter:url(#filter3903)"
       d="m 50,955.39343 c -25.94197,0 -46.96875,21.02678 -46.96875,46.96877 0,25.942 21.02678,46.9688 46.96875,46.9688 25.94197,0 46.96875,-21.0268 46.96875,-46.9688 0,-25.94199 -21.02678,-46.96877 -46.96875,-46.96877 z m -1.0625,26.21875 c 0.353818,-0.0179 0.704224,0 1.0625,0 11.464817,0 20.75,9.28518 20.75,20.75002 0,11.4647 -9.285183,20.7499 -20.75,20.7499 -11.464817,0 -20.75,-9.2852 -20.75,-20.7499 0,-11.10656 8.719129,-20.19403 19.6875,-20.75002 z"
       id="path3768-6" />
    <path
       style="fill:#000000;fill-opacity:1;stroke:none"
       d="M 50 3.03125 C 24.05803 3.03125 3.03125 24.05803 3.03125 50 C 3.03125 75.94197 24.05803 96.96875 50 96.96875 C 75.94197 96.96875 96.96875 75.94197 96.96875 50 C 96.96875 24.05803 75.94197 3.03125 50 3.03125 z M 48.9375 29.25 C 49.291318 29.232065 49.641724 29.25 50 29.25 C 61.464817 29.25 70.75 38.535183 70.75 50 C 70.75 61.464817 61.464817 70.75 50 70.75 C 38.535183 70.75 29.25 61.464817 29.25 50 C 29.25 38.893458 37.969129 29.805988 48.9375 29.25 z "
       transform="translate(0,952.36218)"
       id="path3768" />
  </g>
</svg>
